<?xml version="1.0" encoding="utf-8"?>
<!-- Generator: Adobe Illustrator 23.0.3, SVG Export Plug-In . SVG Version: 6.00 Build 0)  -->
<svg version="1.1" id="_x3C_Layer_x3E_" xmlns="http://www.w3.org/2000/svg" xmlns:xlink="http://www.w3.org/1999/xlink" x="0px"
	 y="0px" viewBox="0 0 2975 1700" style="enable-background:new 0 0 2975 1700;" xml:space="preserve">
<style type="text/css">
	.st0{fill:#EBF2F9;}
	.st1{fill:#5B5A72;}
	.st2{fill:#FFB07B;}
	.st3{fill:#365DA4;}
	.st4{fill:#2B478B;}
	.st5{fill:#C65447;}
	.st6{fill:#EA8E50;}
	.st7{fill:#97009B;}
	.st8{fill:#FF0066;}
	.st9{fill:#629199;}
	.st10{fill:#5F9AA8;}
	.st11{fill:#2C3A64;}
	.st12{fill:#35488B;}
	.st13{fill:#935C2F;}
	.st14{fill:#A16D3C;}
	.st15{fill:#D3782F;}
	.st16{fill:#C97417;}
	.st17{fill:#4A75CB;}
	.st18{fill:#3F3D56;}
	.st19{fill:#BC6F22;}
	.st20{fill:#C3E0F4;}
	.st21{fill:#1E3D70;}
	.st22{fill:#233862;}
	.st23{fill:#2A4E96;}
	.st24{fill:#2E3552;}
</style>
<g>
	<path class="st0" d="M390.81,1588.56c0,0-568.57-569.07-215.48-909.32c353.09-340.25,632.16,101.46,825.16,68.92
		c244.29-41.19,349.94-660.97,715.14-661.56c415.53-0.67,720.51,244.97,558.06,829.97c-119.82,431.48,703.8,78.14,582.83,680.38
		L390.81,1588.56z"/>
	<path class="st1" d="M1630.91,1514.61c-77.29-12.44-135.65,14.64-191.76,6.85c-44.75-6.21-68.07-51.48-128.2-64.3
		c14.3-8.44,30.97-18.99,38.93-26.66c15.47-14.91,37.7-44.72,0-45.89c-27.13-0.84-48.25,44.34-57.97,69.76
		c-8.9-0.74-18.55-0.8-29.04-0.03c12.41-40,36.61-117.43,42.53-132.31c8.06-20.24-25.78-87.72-65.66-11.99
		c-27.97,53.12-8.98,114.51,4.86,146.43c-10.93,1.76-21.24,4.31-31.09,7.39c-32.96-75.19-137.81-289.57-251.46-262.93
		c-123.91,29.04,141.55,173.16,208.5,280.01c-54.69,25.35-102.75,56.15-185.82,33.66c-220.76-59.77-238.27,74.71-238.27,74.71
		l986.56,0.34C1733.02,1589.65,1708.2,1527.05,1630.91,1514.61z"/>
	<g>
		<path class="st2" d="M1362.53,1030.72c1.02,9.49,14.45,9.15,29.63,6.88c15.18-2.27,11.26,1.72,32.61,1.3
			c21.35-0.41,28.47-7.71,29.4-10.79c0.83-2.74-9.52-4.67-20.61-6.98c-1.39-0.29-2.79-0.59-4.19-0.89
			c-12.5-2.74-21.02-11.74-31.9-19.49c-10.3-7.34-17.25-40.98-17.25-40.98l-30.35-0.18c0,0,9.54,30.42,14.5,41
			c2.92,6.22-0.19,14.21-1.17,20.21C1362.69,1024.04,1362.17,1027.37,1362.53,1030.72z"/>
		<path class="st3" d="M1392.16,1037.59c15.18-2.27,11.26,1.72,32.61,1.3c21.35-0.41,28.47-7.71,29.4-10.79
			c0.83-2.74-9.52-4.67-20.61-6.98l-0.12,0.21c0,0-13.5,7.83-31.13,6.65c-14.37-0.96-29.19-6.45-39.1-7.2
			c-0.52,3.26-1.04,6.59-0.68,9.94C1363.55,1040.21,1376.98,1039.87,1392.16,1037.59z"/>
		<path class="st2" d="M1125.26,1029.21c0.66,9.53,14.09,9.69,29.35,7.99c15.26-1.7,11.19,2.14,32.54,2.53
			c21.35,0.39,28.74-6.63,29.79-9.68c0.93-2.7-9.34-5.03-20.33-7.76c-1.38-0.34-2.77-0.69-4.16-1.05
			c-12.39-3.21-20.56-12.53-31.14-20.68c-10.02-7.72-1.78-39.76-1.78-39.76l-23.03-10.88c0,0-3.17,33.02-4.88,49.72
			c-0.7,6.84-4.11,13.71-5.31,19.66C1125.67,1022.55,1125.03,1025.86,1125.26,1029.21z"/>
		<path class="st3" d="M1154.61,1037.2c15.26-1.7,11.19,2.14,32.54,2.53c21.35,0.39,28.74-6.63,29.79-9.68
			c0.93-2.7-9.34-5.03-20.33-7.76l-0.13,0.2c0,0-13.78,7.32-31.35,5.47c-14.32-1.5-28.92-7.55-38.8-8.66
			c-0.65,3.24-1.29,6.55-1.06,9.9C1125.92,1038.74,1139.35,1038.9,1154.61,1037.2z"/>
		<path class="st4" d="M1176.99,553.72c0,0-6.38,30.89-12.77,187.52c0,0-11.85,29-20.44,64.47c-8.6,35.46-14.66,183.43-14.66,183.43
			s3.43,4.94,13.83,5.56c8.5,0.51,15.11-3.21,15.11-3.21s59.75-193.81,88.83-269.05c29.08-75.24,46.13-182.68,46.13-182.68
			L1176.99,553.72z"/>
		<path class="st4" d="M1248.85,566.94c0,0,4.71,31.18,52.95,180.35c0,0-1.07,31.31,3.14,67.56
			c4.21,36.25,53.04,178.95,53.04,178.95s6.48,2.25,16.21-0.31c9.04-2.39,16.13-7.83,16.13-7.83s-18.72-203.97-17.48-284.62
			c1.23-80.66-19.98-187.35-19.98-187.35L1248.85,566.94z"/>
		<path class="st5" d="M1334.28,134.94c-7.56-4.81-16.86-5.76-23.4-5.7c1.77-1.65,5.1-2.12,5.1-2.12
			c-4.02-0.8-13.24,2.76-13.24,2.76c-55.18-24.49-68.16,57.91-67.94,77.21c0.21,19.3-0.75,41.46-29.7,57.32
			c-56.96,31.2-13.3,92.82-13.3,92.82c-10.25,29.42,27.7,65.46,27.7,65.46c-0.64-15.62,71.07-115.16,109.74-137.87
			c9.78-12.96,14.21-36.5,14.55-38.36c-2.51,18.72-6.26,29.1-9.43,34.89C1367.52,253.77,1354.32,147.69,1334.28,134.94z"/>
		<path class="st2" d="M1322.26,274.17c0.19,0.09-18.09,9.58-31.85,5.82c-12.94-3.53-21.39-20.31-21.22-20.34
			c5.48-1.09,7.06-8.62,6.95-40.97l2.48,0.49l40.16,7.96l1.5,0.29c0,0-0.95,13.11-0.98,25.46c-0.01,2.61,0.03,5.19,0.13,7.6
			C1319.68,267.63,1320.48,273.34,1322.26,274.17z"/>
		<path class="st6" d="M1319.29,252.86c-0.01,2.61,0.03,5.19,0.13,7.6c-23.36-0.94-36.82-27.65-41.9-39.37l41.26,6.02l1.5,0.29
			C1320.27,227.41,1319.31,240.52,1319.29,252.86z"/>
		<path class="st5" d="M1274.31,214.63c0,0-12.21-19.3-15.15-35.8c-2.09-11.78,3.91-55.45,47.79-49.16c0,0,12.75,1.26,24.73,9.35
			c9.53,6.44,23.28,20.33,7.9,58.44l-3.99,12.87L1274.31,214.63z"/>
		<path class="st2" d="M1322.72,246.81c0,0-54.68-7.23-49.65-41.21c5.03-33.98,1.35-57.8,36.47-54.62
			c35.12,3.18,39.97,17.14,41.05,28.89C1351.68,191.63,1337.07,247.82,1322.72,246.81z"/>
		<path class="st5" d="M1334.51,153.85c0,0-20.87,37.63-44.67,40.11c-23.8,2.48-32.82-5.14-32.82-5.14s19.66-11.35,26.94-35.18
			C1283.96,153.64,1326.07,133.2,1334.51,153.85z"/>
		<path class="st5" d="M1330.33,156.54c0,0,9.83,10.56,11.26,19.62c1.43,9.06,0,27.05,5.28,27.22c0,0,15.29-25.42,4.93-42.63
			C1340.81,142.5,1330.33,156.54,1330.33,156.54z"/>
		<path class="st7" d="M1693.43,618.21c-11.47-24.3-43.36-44.4-70.23-44.41c-19.84-0.01-37.34,6.77-50.88,17.8
			c-7.74,6.31-19.42,2.15-21.52-7.62l-23.52-109.26c-3.43-15.93-19.12-26.07-35.06-22.64l-380.53,81.9
			c-15.57,3.35-25.47,18.68-22.12,34.25l81.81,380.11c2.34,10.87,10.31,19.07,20.2,22.23l-5,1.42h14.77l0.12-0.02
			c1.81-0.05,3.63-0.26,5.47-0.66l8.29-1.78l0,0l0,0l97.66-21.02c13.71-2.95,19.27-19.53,10.06-30.1
			c-8.9-10.21-15.3-22.86-18.02-37.18c-7.69-40.37,17.27-80.36,56.94-91.11c44.12-11.95,88.68,15.59,98.17,59.7
			c3.57,16.6,1.66,33.09-4.53,47.61c-2.4,5.64-0.42,11.49,3.71,14.83l-5.7,2.78l13.2-0.01v0c0.99,0.02,2.01-0.06,3.05-0.28
			l116.61-25.1c15.94-3.43,26.08-19.13,22.65-35.07l-23.37-108.59c-2.16-10.05,7-18.86,16.96-16.3c11.51,2.96,23.87,3.36,36.28,0.69
			C1687.69,719.87,1716.21,666.47,1693.43,618.21z"/>
		<path class="st8" d="M1609.76,573.8c-19.84-0.01-37.34,6.77-50.88,17.8c-7.74,6.31-19.42,2.15-21.52-7.62l-23.52-109.26
			c-3.43-15.93-19.12-26.07-35.06-22.64l-380.53,81.9c-15.57,3.35-25.47,18.68-22.12,34.25l81.81,380.11
			c3.48,16.16,19.4,26.44,35.56,22.97l105.95-22.8c13.71-2.95,19.27-19.53,10.06-30.1c-8.9-10.21-15.3-22.86-18.02-37.18
			c-7.69-40.37,17.27-80.36,56.94-91.11c44.12-11.95,88.68,15.59,98.17,59.7c3.57,16.6,1.66,33.09-4.53,47.61
			c-4.02,9.43,4.24,19.47,14.26,17.32l116.61-25.1c15.94-3.43,26.08-19.13,22.65-35.07l-23.37-108.59
			c-2.16-10.05,7-18.86,16.96-16.3c11.51,2.96,23.87,3.36,36.28,0.69c48.79-10.5,77.31-63.91,54.53-112.16
			C1668.52,593.91,1636.63,573.81,1609.76,573.8z"/>
		<path class="st2" d="M1470.53,429.29c0,0,23.73,3.89,29.96,19.33c6.22,15.44-2.47,25.89-5.81,25.85
			c-3.34-0.04-9.75-2.5-12.75-10.51C1478.94,455.95,1470.53,429.29,1470.53,429.29z"/>
		<path class="st2" d="M1143.78,498.17c0,0,26.64-0.03,36.23,15.71c9.58,15.75,1.98,28.74-1.68,29.3
			c-3.66,0.56-11.1-0.98-15.83-9.19C1157.77,525.79,1143.78,498.17,1143.78,498.17z"/>
		<path class="st9" d="M1471.19,447.21c-2.36-0.5-12.69-1.72-25.83-3.79c-24.19-3.8-57.91-10.48-69.23-20.91
			c-3.06-2.83-10.2-18.43-17.62-36.3c-7.51,39.57-7.92,69.93-5.93,93.04l-163.5,35.19c14.02-28.34,35.72-63.48,31.65-91.92
			c-1.51-10.54-7.28-25.01-9.44-41.26c-0.18-1.4-0.34-2.8-0.46-4.21c-22.93,18.88-49.42,39.7-50.05,43.87
			c-1.05,6.98,16.8,84.28,16.8,84.28c-4.43,10.2-23.69,8.06-23.69,8.06c-18.05-12.88-44.58-85.9-42.45-102.07
			c2.12-16.18,67.91-108.36,83.84-130.39c15.73-21.77,73.15-21.22,74.54-21.22h0.01c0.01,0,0.01,0,0.02,0
			c45.67,27.42,49.78,4.63,49.78,4.63s41.2,7.84,48.29,20c7.08,12.17,38.13,104.47,40.33,107.73c4.6,6.8,79.66,33.99,81.01,41.87
			C1490.6,441.65,1477.92,448.64,1471.19,447.21z"/>
		<path class="st10" d="M1246.09,502.22l-57.01,12.21c14.19-28.26,32.86-63.46,28.77-91.73c-1.53-10.55-4.95-23.04-6.6-39.37
			c-0.16-1.57-0.43-6.31-0.43-6.31s40.37,31.77,41.08,66.16C1252.28,461.02,1249.16,484.36,1246.09,502.22z"/>
		<path class="st10" d="M1446.88,443.63c-24.48-3.8-58.63-10.48-70.08-20.93c-3.1-2.84-10.33-18.45-17.84-36.34
			c0,0-2.63-28.77,4.89-27.7c7.52,1.07,18.59,52.1,26.48,55.33C1397.4,416.88,1436.47,431.88,1446.88,443.63z"/>
	</g>
	<g id="man_2_">
		<g>
			<path class="st11" d="M2653.07,1539.7c-3.45,11.63-19.38,19.38-21.54,33.6c-1.05,6.94-3.63,12.33-6.92,16.03H2575
				c0.5-2.73,2.67-5.67,9.12-7.08c13.78-3.01,18.97-19.71,18.12-35.22c-0.36-6.5-0.19-13.91,0.13-20.33
				c0.44-8.88,1.17-15.86,1.17-15.86l29.28-6.89l3.08,3.95l2.95,3.8C2638.85,1511.71,2656.51,1528.07,2653.07,1539.7z"/>
			<path class="st11" d="M2422.06,1589.33h-100.36c2.27-2.66,6.13-5.24,12.65-6.3c15.45-2.51,42.19-11.47,48.16-31.22
				c0.19-0.63,0.37-1.28,0.51-1.94c4.73-21.1,39.19,6.46,39.19,6.46s0.11,0.85,0.26,2.28
				C2423.08,1564.56,2424.42,1580.68,2422.06,1589.33z"/>
			<path class="st12" d="M2338.45,1030.19c0,0,5.23,65.29,11.38,143.77c8.36,106.61,18.41,237.56,19.41,262.37
				c1.72,43.08,8.62,111.98,8.62,111.98s16.36,16.37,49.1,9.47c0,0,29.17-98.37,37.51-202.44c0.13-1.71,0.26-3.42,0.39-5.14
				c7.75-105.95,19.81-329.05,19.81-329.05L2338.45,1030.19z"/>
			<path class="st11" d="M2338.45,1030.19c0,0,5.23,65.29,11.38,143.77l114.63,181.38c0.13-1.71,0.26-3.42,0.39-5.14
				c7.75-105.95,19.81-329.05,19.81-329.05L2338.45,1030.19z"/>
			<path class="st12" d="M2362.34,1037.95c0,0,94.32,236.45,156.34,347.57c62.02,111.12,81.4,142.13,81.4,142.13
				s35.53-14.21,38.76-23.9c0,0-23.72-214.52-65.25-266.82c-23.47-29.55-51.04-118.23-52.33-149.24c-1.29-31.01-8.4-92.38-8.4-92.38
				L2362.34,1037.95z"/>
		</g>
		<path class="st13" d="M2410.72,672.96c-4.19-24.76-4.32-39.44-4.32-39.44l47.86-38.57c-1.78,53.03,32.2,78.53,32.2,78.53
			s-63.77,31.39-100.64,19.77C2385.82,693.25,2394.9,681.65,2410.72,672.96z"/>
		<path class="st14" d="M2395.12,632.65c0,0,60.88,10.11,66.6-27.9c5.72-38.01,17.42-62.31-21.21-70.37
			c-38.63-8.06-48.38,5.3-53.37,17.52C2382.15,564.13,2379.44,629.03,2395.12,632.65z"/>
		<g>
			<path class="st14" d="M2181.3,711l-12.96-8.02c0,0-16.16-23.86-43.77-9.03c0,0-10.94,6.97-3.6,12.81
				c7.34,5.84,5.37,2.54,15.53,10.99c10.17,8.46,23.32,11.48,31.8,6.81l10.88-1.03L2181.3,711z"/>
			<path class="st15" d="M2165.91,713.5c3.34-10.44,4.93-11.37,4.93-11.37s104.82,12.39,114.7,13.12
				c9.88,0.73,147.12-27.55,147.12-27.55l64.8,78.69c0,0-191.05,7.2-216.06,4.86c-41.32-3.87-116.25-42.34-116.25-42.34
				S2163.29,721.71,2165.91,713.5z"/>
		</g>
		<path class="st16" d="M2520.06,1007.39c0.18,4.06-8.18,8.52-11.82,10.15c-27.36,12.27-52.85,20.79-81.64,23.56
			c-34.15,3.5-74.51-4.18-88.35-4c-1.48,0-2.77-0.55-3.88-1.47c-0.92-0.74-1.66-42.46-0.92-95.06c0-2.03,0-4.25,0.18-6.28v-0.73
			c0.05-5.48,0.14-11.04,0.26-16.66c0.34-15.37,0.92-31.16,1.59-46.84c1-23.12,2.37-45.84,4.28-65.97
			c1.99-21.03,4.51-39.23,7.73-52.15c7.38-29.72,24.37-49.29,39.87-63.69l12.73-11.25c12.73,2.58,26.21,1.84,39.68-4.8
			c14.58-7.2,30.46-14.96,33.04-13.11c19.68,14.71,32.93,48.1,39.72,90.53c3.65,22.84,5.44,48.29,5.34,74.87
			c-0.04,10.19-0.35,20.54-0.95,30.98c-3.29,56.05,0.09,104.64,2.02,132.88C2519.49,996.48,2519.94,1002.94,2520.06,1007.39z"/>
		<path class="st17" d="M2196.41,489.27l-385.03-61.15c-16.37-2.6-31.75,8.56-34.35,24.93l-17.04,107.31
			c-0.79,4.97,0.47,18.94,0.47,18.94l13.88,2.06c0.79,0.17,1.59,0.29,2.4,0.36l0,0l0,0c2.51,0.2,5.13-0.11,7.75-1.06
			c12.77-4.62,26.91-6.03,41.29-3.39c40.53,7.43,68.88,45.25,64.57,86.23c-4.8,45.58-46.69,77.27-91.37,70.17
			c-16.81-2.67-31.54-10.44-42.87-21.47c-2.2-2.14-4.84-3.27-7.51-3.55l0,0l-14.52-2.18L1716,837.39
			c-2.56,16.15,8.45,31.31,24.59,33.88l109.99,17.47c10.18,1.62,15.09,13.37,9.1,21.76c-6.93,9.69-11.78,21.1-13.78,33.67
			c-7.85,49.43,31.75,95.43,85.13,91.6c26.87-1.93,57.21-24.46,66.95-49.58c7.19-18.55,7.2-37.36,1.79-54.02
			c-3.09-9.52,5.03-18.94,14.91-17.37l110.67,17.58c16.14,2.56,31.3-8.44,33.86-24.58l61.21-385.45
			C2222.93,506.58,2212.18,491.77,2196.41,489.27z"/>
		<path class="st15" d="M2474.21,748.49c0,0-29.51,137.73-140.32,168.41c0.34-15.37,0.92-31.16,1.59-46.84
			c1-23.12,2.37-45.84,4.28-65.97c1.98-1.02,3.84-1.82,5.53-2.38C2382.9,789.31,2474.21,748.49,2474.21,748.49z"/>
		<path class="st18" d="M1983.74,984.04c7.19-18.55,7.2-37.36,1.79-54.02c-3.09-9.52,5.03-18.94,14.92-17.37l110.67,17.58
			c16.14,2.56,31.3-8.44,33.86-24.58l61.21-385.45c2.5-15.77-8.25-30.58-24.01-33.08l-385.03-61.15
			c-16.37-2.6-31.75,8.56-34.35,24.93l-17.04,107.31c-2.2,13.88,11.28,25.09,24.5,20.31c12.77-4.62,26.91-6.03,41.29-3.39
			c40.53,7.43,68.88,45.25,64.57,86.23c-4.8,45.58-46.69,77.27-91.37,70.17c-16.81-2.67-31.54-10.44-42.87-21.47
			c-7.36-7.17-19.74-3.09-21.36,7.06l-18.76,118.12c-2.56,16.14,8.45,31.31,24.59,33.87l109.99,17.47
			c10.18,1.62,15.09,13.37,9.1,21.76c-6.93,9.69-11.78,21.1-13.78,33.67c-7.85,49.43,31.76,95.43,85.13,91.6
			C1943.66,1031.69,1974,1009.16,1983.74,984.04z"/>
		<g>
			<path class="st19" d="M2181.74,799.8l-15.83-2.62c0,0-18.05-26.12-49.5-11.46c0,0-12.48,6.98-4.23,13.51
				c8.25,6.53,6.05,2.93,17.48,12.37c11.43,9.44,26.3,13.21,35.97,8.6l12.34-0.64L2181.74,799.8z"/>
			<path class="st19" d="M2169.64,807.85c0.51-11.65,6.72-12.89,6.72-12.89s119.92-7.93,130.26-9.94
				c10.35-2.01,105.85-81.14,105.85-81.14s36.94-33.2,62.81-22c22.49,9.73,29.53,28.94,30.66,46.6
				c1.35,21.05-10.52,40.72-29.63,49.65c-42.89,20.03-128.68,59.36-148.21,62.75c-43.48,7.55-155.24-16.65-155.24-16.65
				S2169.24,817,2169.64,807.85z"/>
		</g>
		<path class="st11" d="M2387.14,551.9c0,0-24.71-18.32-8.59-46.79c0,0,19.44,6.45,47.05,0c27.61-6.45,52.32,2.69,55.55,12.35
			c0,0,10.74,4.3,11.82,20.41c1.07,16.12-31.24,66.87-31.24,66.87s-6.9-8.59-5.02-14.5c1.88-5.91,7.79-19.07,0.54-19.07
			s-9.67,10.74-12.62,6.45c-2.95-4.3,2.42-22.29-6.18-25.25C2429.84,549.42,2396.81,557.34,2387.14,551.9z"/>
	</g>
	<path class="st20" d="M1547.28,1575.61l-108.84-494.16h29.96c7.1,0,12.91-5.81,12.91-12.91v-16.69c0-7.1-5.81-12.91-12.91-12.91
		h-380.04c-7.1,0-12.91,5.81-12.91,12.91v16.69c0,7.1,5.81,12.91,12.91,12.91h38.57l-108.84,494.16
		c-1.46,6.64,2.76,13.28,9.38,14.75c6.62,1.47,13.24-2.77,14.7-9.41l110.01-499.5h260.99l110.02,499.5
		c1.46,6.64,8.08,10.88,14.7,9.41l0,0C1544.52,1588.89,1548.74,1582.25,1547.28,1575.61z"/>
	<g>
		<path class="st1" d="M2269.02,1272.99c-40.28-38.67-185.31,205.34-185.31,205.34S2309.31,1311.66,2269.02,1272.99z"/>
		<path class="st1" d="M2264.19,1385.79c-35.66-14.27-149.64,105.89-175.3,133.64c-19.64-2.61-41.18-4.3-64.79-4.72
			c-180.48-3.22-262.34,78.52-262.34,78.52l503.45,1.71c0,0-44.6-56.63-171.11-74.8c30.91-14.6,122.34-57.12,155.6-65.3
			C2289.97,1444.94,2304.47,1401.9,2264.19,1385.79z"/>
	</g>
	<g>
		<path class="st7" d="M2122.19,1140.88h-108.66c-14.06,0-23.01,15.08-16.21,27.38c6.57,11.88-16.54,114.86-65.21,117.54
			c-45.76,2.53-83.64-33.99-83.64-79.23c0-17.02,5.36-32.79,14.48-45.71c5.93-8.4-0.04-19.98-10.32-19.98h-119.6
			c-16.35,0-29.6,13.25-29.6,29.6c0,0-10.84,128.37-20.06,123.77c-9.5-4.75-20.08-7.64-31.28-8.21l0,0h-0.11
			c-1.34-0.07-2.68-0.11-4.03-0.11c-1.36,0-21.04-0.34-21.04-0.34l-2.98,158.64l17.1,0.18c16.25-0.49,30.37-2.01,42.92-8.4
			c8.92-4.55,19.49,1.99,19.49,12.01v112.06c0,16.34,13.25,29.59,29.59,29.59h390.28c15.96,0,28.91-12.94,28.91-28.91V1170.9
			C2152.2,1154.32,2138.76,1140.88,2122.19,1140.88z"/>
		<path class="st8" d="M1609.26,1442.37c19.45,4.19,38.03,1.25,53.63-6.71c8.92-4.55,19.49,1.99,19.49,12.01v112.06
			c0,16.34,13.25,29.59,29.59,29.59h390.28c15.96,0,28.91-12.94,28.91-28.91v-389.85c0-16.58-13.44-30.01-30.01-30.01h-108.66
			c-14.06,0-23.01,15.08-16.21,27.38c6.57,11.88,10.17,25.63,9.82,40.25c-0.98,41.19-33.88,75.13-75.03,77.29
			c-45.77,2.41-83.64-33.99-83.64-79.23c0-17.02,5.36-32.79,14.48-45.71c5.93-8.4-0.04-19.98-10.33-19.98h-119.6
			c-16.35,0-29.6,13.25-29.6,29.6v111.37c0,10.31-10.84,17.01-20.06,12.4c-10.66-5.33-22.69-8.33-35.41-8.33
			c-50.04,0-89.27,46.33-77.12,98.44C1555.91,1410.26,1582.93,1436.7,1609.26,1442.37z"/>
	</g>
	<path class="st1" d="M479.26,1591.5l70.14,0.52c0,0-2.44-16.97-49.66-21.35l0,0c-18.31-50.85-72.08-187.64-118.78-181.17
		c-46.11,6.39,63.09,131.88,107.51,180.67c-6.29,0.01-12.14,0.52-17.55,1.39c-10.7-21.31-31.92-51.42-65.97-50.05
		c-36.24,1.46,13.13,34.56,47.13,54.88c-17.22,6.18-26.52,14.72-26.52,14.72l52.9,0.39c0.62,0.34,0.96,0.52,0.96,0.52
		S479.36,1591.84,479.26,1591.5z"/>
	<g>
		<g>
			<path class="st6" d="M729.87,1024.69l10.38,8.43c0,0,28.39-10.18,34.8,23.56c0,0,1.71,14.38-7.4,14.41
				c-9.11,0.03-5.35-1.57-18.25-1.19c-12.9,0.38-23.59-6.42-25.48-16.89l-6.17-8.87L729.87,1024.69z"/>
			<path class="st21" d="M728.69,1042.78c8.28-8.65,7.61-15.04,7.61-15.04s-95.88-78.5-105.6-84.89
				c-6.63-4.36-77.24-66.96-110.24-105.12c-16.37-18.93-36.65-11.58-59.85-4.93l-19.11,5.48c-23.07,6.62-29.07,38.89-10.14,54.57
				c53.32,44.16,142.01,93.84,158.61,104.27c41.2,25.92,121.84,56.71,121.84,56.71S721.58,1050.21,728.69,1042.78z"/>
		</g>
		<path class="st22" d="M840.91,1524.26c0,0,23.27,17.43,58.92,8.22c0,0,28.75-6.55,35.05,7.79c0,0-44.09,22.4-55.24,28.52
			c-8.41,4.62-17.18,11.9-23.39,17.54c-4.91,4.46-12.56,3.85-16.74-1.29c-1.94-2.39-4.16-5.23-6.59-8.52
			c-6.8-9.21-22.64-38.97-22.64-38.97L840.91,1524.26z"/>
		<path class="st4" d="M851.77,1516.21c0,0-14.17,32.67-46.88,26.66c0,0-66.74-55.12-112.52-112.37
			c-14.87-18.6-27.53-37.42-34.96-54.64c-30.36-70.28-112.29-175.11-164.39-228.24l130.34-47.15c0,0,41.75,83.98,97.29,187.13
			C760.69,1361.93,807.87,1446.21,851.77,1516.21z"/>
		<path class="st22" d="M720.66,1287.6l-28.28,142.9c-14.87-18.6-27.53-37.42-34.96-54.64c-30.36-70.28-112.29-175.11-164.39-228.24
			l130.34-47.15C623.36,1100.47,665.11,1184.45,720.66,1287.6z"/>
		<path class="st22" d="M613.78,1542.79c0,0-1.42,26.07,30.18,29.55c0,0,18.06,0.1,18.11,16.69l-91.85,0.29
			c0,0-2.67-6.69-3.31-21.03c-0.5-11.01,10.67-39.79,10.67-39.79L613.78,1542.79z"/>
		<path class="st4" d="M580.61,1100.47c0,0,58.06,63.8,94.92,178.75c20.05,62.54-36.76,219.77-47.83,274.41
			c0,0-38.11,3.23-64.17-6.84c0,0-1.98-112.84,13.26-199.8c8.53-48.67-76.45-104.09-113.58-192.04
			c-25.26-59.83,5.47-58.81,43.24-60.25L580.61,1100.47z"/>
		<path class="st2" d="M513.59,815.82c-32.3,18.24-98.44,1.42-98.44,1.42s26.86-30.71,14.65-80.16l25.36,12.88l27.25,13.84
			c0,0,1.76,8.73,2.99,24.42c0.31,4.04,0.59,8.55,0.78,13.48C502.77,806.73,513.59,815.82,513.59,815.82z"/>
		<path class="st23" d="M632.04,1097.17c0,5.68-6.54,8.4-7.93,8.67c-13.03,2.38-49.41,16.53-82.18,19.78
			c-27.6,2.89-53.22,0.15-81.37-5.51c-3.73-0.75-12.48-3.11-13.1-6.68c-0.78-3.9-108.57-219.75-24.77-312.47
			c1.97-2.17,18.51,1.74,33.64,5.33c13.97,3.31,26.78,1.47,38.23-3.12l14.19,7.46c17.42,9.71,50.39,44.2,54.24,71.26
			c1.96,13.76,9.83,23.95,12.11,36.06c0.85,4.48,1.71,8.85,2.59,13.12c1.72,8.36,3.49,16.32,5.31,23.89
			c4.93,20.47,10.13,38.09,15.24,53.31c5.44,16.16,10.77,29.61,15.53,40.85c6.18,14.58,11.4,25.48,14.66,33.83
			C630.72,1088.83,632.04,1093.44,632.04,1097.17z"/>
		<path class="st21" d="M628.42,1082.95C476.25,1011.26,423.55,873.6,423.55,873.6s123.63,45.61,154.13,57.48
			c1.72,8.36,3.49,16.32,5.31,23.89c4.93,20.47,10.13,38.09,15.24,53.31c5.44,16.16,10.77,29.61,15.53,40.85
			C619.94,1063.71,625.16,1074.61,628.42,1082.95z"/>
		<path class="st17" d="M1058.24,930.48l-32.59-103.35c-3.17-10.04-13.55-14.79-22.62-12.24l0,0l-0.03,0.01
			c-0.48,0.14-0.96,0.3-1.43,0.48l-11.43,3.82c0,0-17.89,18.43-30.74,22.14c-39.48,11.42-76.95-9.62-91.35-48.11
			c-16.02-42.81,2.57-89.82,45.6-103.39c14.72-4.64,43.7,4.01,43.7,4.01l11.63-3.87c6.32-1.92,10.66-8.74,8.4-15.89L941.5,560.33
			c-4.9-15.55-21.48-24.18-37.03-19.28l-105.93,33.41c-9.8,3.09-19.43-5.21-17.81-15.36c1.87-11.74,1.11-24.08-2.7-36.18
			c-15.01-47.6-70.85-71.01-116.77-43.82c-23.12,13.69-40.16,47.31-37.66,74.07c1.85,19.76,10.22,36.55,22.47,49
			c7,7.12,3.95,19.14-5.57,22.14l-106.59,33.61c-15.54,4.9-24.17,21.48-19.27,37.02l117.07,371.22
			c4.79,15.18,20.98,23.61,36.17,18.82l370.81-116.94C1054.46,963.06,1063.21,946.25,1058.24,930.48z"/>
		<path class="st18" d="M612.32,556.92c1.85,19.76,10.22,36.55,22.47,49c7,7.12,3.95,19.14-5.57,22.14l-106.59,33.61
			c-15.54,4.9-24.17,21.48-19.27,37.02l117.07,371.22c4.79,15.19,20.98,23.61,36.17,18.82l370.81-116.94
			c15.77-4.97,24.52-21.78,19.55-37.55l-32.6-103.35c-4.22-13.37-21.24-17.36-30.91-7.21c-9.34,9.81-21.33,17.36-35.34,21.42
			c-39.48,11.42-81.62-9.69-96.03-48.18c-16.02-42.81,7.24-89.75,50.28-103.32c16.19-5.1,32.79-4.74,47.82,0.06
			c9.77,3.12,18.99-6.04,15.91-15.81l-35.88-113.76c-4.9-15.55-21.48-24.18-37.03-19.27l-105.93,33.41
			c-9.8,3.09-19.43-5.21-17.81-15.36c1.87-11.74,1.11-24.08-2.7-36.18c-15.01-47.6-70.84-71.01-116.76-43.82
			C626.86,496.54,609.82,530.17,612.32,556.92z"/>
		<g>
			<path class="st2" d="M717.45,1041.41l13.15,4.82c0,0,26.33-18.62,42.73,11.66c0,0,5.93,13.23-3.46,16.1
				c-9.39,2.87-5.97,0.17-19.17,4.56c-13.19,4.39-26.19,1.23-31.18-8.2l-8.94-6.56L717.45,1041.41z"/>
			<path class="st23" d="M728.27,1060c4.86-12.68,7.08-18.43,7.08-18.43s-99.36-80.99-109.48-87.93
				c-6.9-4.73-75.58-56.07-109.06-96.08c-16.61-19.85-42.8-28.92-68.13-23.61l-20.86,4.37c-25.19,5.28-33.37,37.16-13.83,53.91
				c55.02,47.17,147.83,101.88,165.13,113.26c42.96,28.25,137.97,67.83,137.97,67.83S724.45,1069.96,728.27,1060z"/>
		</g>
		<path class="st6" d="M485.4,788.22c-31.77,1.78-52.43-24.45-52.43-24.45s14.36-7.96,22.19-13.81l27.25,13.84
			C482.41,763.8,484.17,772.54,485.4,788.22z"/>
		<path class="st2" d="M498.93,755.61c0,0-48.13,34.54-69.18,4.24c-21.05-30.31-41.44-46.26-11.6-69.59
			c29.84-23.33,43.91-15.96,53.4-7.56C481.03,691.1,510.91,745.84,498.93,755.61z"/>
		<path class="st22" d="M476.63,655.32c-1.73-11.65-5.61-19.85-5.61-19.85s-3.02,12.51-25.89,10.79
			c-22.87-1.72-59.11,2.25-71.19,28.31c-0.77,1.66-1.45,3.37-2.06,5.11c-2.19-5.78-2.71-14.43-2.71-14.43
			c-4.35,11.22,0,25.25,0,25.25h0c-0.06,0.41-0.12,0.82-0.18,1.23c-5.05,4.27-9.28,17.53-9.28,17.53c1.52-3.7,5.24-6.11,8.55-7.6
			c-0.1,20.28,8.12,40.1,22.55,46c21.11,8.63,20.94,2.05,42.16,16.12c0,0,5.69-7.06,1.81-11.81c-3.88-4.75-18.55-11.65-10.36-18.55
			c8.2-6.9,11.22,0.86,14.24-3.88c3.02-4.75-12.08-18.55,7.33-31.5C465.41,685.09,478.36,666.97,476.63,655.32z"/>
	</g>
	<path class="st1" d="M1715.74,1589.5c0,0-24.34-35.98-62.44-33.08c-11.58,0.88-30.39,3.7-52.24,6.71
		c-16.48-57.51-61.91-194.22-123.18-201.92c-62.57-7.86,59.88,144.18,109.95,203.7c-9.13,1.2-18.62,2.38-28.19,3.42
		c-26.51-28.31-72.71-70.24-111.29-67.02c-38.67,3.23,33.73,43.22,85.99,69.37c-32.07,2.4-62.47,2.14-81.05-5.05
		c-45.5-17.59-87.32,23.87-87.32,23.87H1715.74z"/>
	<path class="st24" d="M2940.36,1597.12H2.92c-1.6,0-2.92-1.31-2.92-2.92v-1.97c0-1.6,1.31-2.92,2.92-2.92h2937.44
		c1.6,0,2.92,1.31,2.92,2.92v1.97C2943.28,1595.81,2941.96,1597.12,2940.36,1597.12z"/>
</g>
</svg>
